<?xml version="1.0" encoding="utf-8"?>
<!-- Svg Vector Icons : http://www.onlinewebfonts.com/icon -->
<!DOCTYPE svg PUBLIC "-//W3C//DTD SVG 1.1//EN" "http://www.w3.org/Graphics/SVG/1.1/DTD/svg11.dtd">
<svg version="1.1" xmlns="http://www.w3.org/2000/svg" xmlns:xlink="http://www.w3.org/1999/xlink" x="0px" y="0px" viewBox="0 0 256 256" enable-background="new 0 0 256 256" xml:space="preserve">
<metadata> Svg Vector Icons : http://www.onlinewebfonts.com/icon </metadata>
<g><g><g><path fill="#000000" d="M122,10.6c-5.2,1.1-9.5,2.9-25.9,11.1c-17,8.6-19,9.4-26.1,12.4C58.1,38.8,44.9,43,31.2,46.2l-7.3,1.8v7.8c0,20.6,3,43.6,8.3,64c9.9,38.4,30.2,73.3,56.9,98.3c12,11.1,24.8,20.6,34.9,25.8l4.2,2.1l4.2-2.5c12.3-7.2,22.6-15.4,35.6-28.2c29.7-29.3,49.8-66.8,58.8-109.6c3.3-15.7,5.4-35.1,5.4-50.4v-7.4l-7.3-1.8c-13.7-3.2-27-7.4-38.8-12.1c-7.2-2.9-9.1-3.8-26.1-12.4c-8.8-4.4-17.5-8.6-19.4-9.3C133.6,10,127.9,9.4,122,10.6z M137,21.2c1.8,0.7,11.1,5.1,20.6,9.9c24.8,12.4,40.9,18.5,61.4,23.4c1.8,0.4,3.4,0.9,3.5,1.1c0.3,0.6-0.6,17.8-1.3,24.3c-2.9,26.2-9.5,50.3-20.2,72.9c-7.8,16.6-20.3,35.1-32.9,49c-9.3,10.2-23.2,22.2-34.1,29.5l-5.9,3.9l-3.3-2c-27.4-16.1-52.2-43.4-67.8-74.7C45,135.1,38,110.1,34.8,80.9c-0.7-6.4-1.7-24.7-1.3-25.3c0.1-0.2,1.7-0.7,3.5-1.1c20.6-4.9,36.7-11.1,61.4-23.4c23.2-11.6,23.1-11.6,30.5-11.3C132.9,19.9,134.4,20.2,137,21.2z"/><path fill="#000000" d="M158,93.8c-3.2,1.3-4.9,2.6-6.5,5c-2,3-2.8,6.1-2.6,9.6c0.4,5.1,2.9,9,8.7,13.3c6.7,4.9,8.4,7.2,8.4,11c0,6.5-6.4,9.3-14.4,6.2l-2.1-0.8l-0.7,3.7l-0.7,3.7l1.7,0.7c3,1.3,7.7,1.8,11.2,1.2c5.6-1,9.5-3.6,11.7-8c1.4-2.8,1.7-4.2,1.7-7.9c0-6.1-2.9-10.7-9.7-15.5c-4.6-3.2-6-4.6-6.8-6.6c-0.9-2.1-0.5-5.1,0.9-6.8c1.9-2.5,6.4-3.2,10.1-1.8c1.1,0.5,2.1,0.6,2.3,0.4c0.4-0.5,1.4-4.8,1.4-6.2C172.4,92.7,162.7,91.9,158,93.8z"/><path fill="#000000" d="M92.6,93.7c-0.3,0.9-11.8,52.9-11.8,53.3c0,0.2,1.9,0.3,4.2,0.3c2.3,0,4.2-0.1,4.2-0.2c0-0.2,2.2-11.3,2.5-12.7c0.2-1,0.4-1,5.7-1h5.4l1.4,6.8l1.4,6.8l4.2,0.1c3.8,0.1,4.2,0,4-0.7c-0.5-2.3-10.8-52.6-10.8-53C103,92.9,92.8,93.1,92.6,93.7z M99.5,112.9c1,5.8,1.9,11.2,2,12l0.2,1.5h-4.5c-4,0-4.4-0.1-4.2-0.8c0.4-1.4,2.5-12.6,3.3-18c0.5-2.8,0.9-5.2,1.1-5.2C97.6,102.4,98.5,107.2,99.5,112.9z"/><path fill="#000000" d="M120.6,120.3v27.1h11.6h11.6v-3.7v-3.7h-7.4h-7.4v-8.6v-8.6h6.5h6.5v-3.7v-3.7h-6.5h-6.5V108v-7.4h6.9h6.9v-3.7v-3.7h-11.1h-11.1V120.3z"/></g></g></g>
</svg>